# xmcd
#
# Track frame offsets:
#	150
#	17960
#	33861
#
# Disc length: 704 seconds
#
# Revision: 0
# Processed by: cddbd v1.5.1PL0 Copyright (c) Steve Scherf et al.
# Submitted via: audiograbber 1.83.01
#
DISCID=1a02be03
DTITLE=Belle - Single
DYEAR=2002
DGENRE=Country
TTITLE0=Richest Folks In Town (Radio Edit)
TTITLE1=Am I Too Blue
TTITLE2=Richest Folks In Town (Album Version)
EXTD=
EXTT0=
EXTT1=
EXTT2=
PLAYORDER=
